<svg preserveAspectRatio="none" overflow="visible" style="display: block;" width="22.6396" height="22.6396" viewBox="0 0 22.6396 22.6396" fill="none" xmlns="http://www.w3.org/2000/svg">
  <path d="M18.1113 11.3203C18.1113 9.51896 17.3958 7.79133 16.1221 6.51758C14.8483 5.24383 13.1207 4.52832 11.3193 4.52832C9.5181 4.5284 7.79027 5.2439 6.5166 6.51758C5.24304 7.7913 4.52734 9.5191 4.52734 11.3203C4.52742 13.1216 5.24294 14.8494 6.5166 16.123C7.79027 17.3967 9.5181 18.1122 11.3193 18.1123C13.1205 18.1123 14.8484 17.3966 16.1221 16.123C17.3958 14.8494 18.1113 13.1216 18.1113 11.3203ZM22.6396 11.3203C22.6396 14.3224 21.4469 17.2014 19.3242 19.3242C17.2013 21.4471 14.3216 22.6396 11.3193 22.6396C8.3172 22.6396 5.43827 21.4471 3.31543 19.3242C1.1926 17.2014 7.55249e-05 14.3225 0 11.3203C-2.62465e-07 8.31805 1.19252 5.43835 3.31543 3.31543C5.43825 1.1927 8.31728 8.30994e-05 11.3193 0C14.3216 -4.8913e-07 17.2013 1.19251 19.3242 3.31543C21.4471 5.43835 22.6396 8.31805 22.6396 11.3203Z" fill="#D9D9D9" fill-opacity="0.63"/>
</svg>
